<mxfile host="app.diagrams.net" agent="Mozilla/5.0 (Windows NT 10.0; Win64; x64) AppleWebKit/537.36 (KHTML, like Gecko) Chrome/132.0.0.0 Safari/537.36" version="26.0.10">
  <diagram name="第 1 页" id="5LdNMxeZxCJ3djQmPmpc">
    <mxGraphModel dx="1723" dy="720" grid="1" gridSize="10" guides="1" tooltips="1" connect="1" arrows="1" fold="1" page="1" pageScale="1" pageWidth="1169" pageHeight="827" math="0" shadow="0">
      <root>
        <mxCell id="0" />
        <mxCell id="1" parent="0" />
        <mxCell id="gU23In4gm5cuZfsaVs3h-1" value="教学评价设计" style="whiteSpace=wrap;strokeWidth=2;verticalAlign=top;" vertex="1" parent="1">
          <mxGeometry x="480" y="20" width="160" height="470" as="geometry" />
        </mxCell>
        <mxCell id="gU23In4gm5cuZfsaVs3h-2" value="过程性评价" style="whiteSpace=wrap;strokeWidth=2;" vertex="1" parent="gU23In4gm5cuZfsaVs3h-1">
          <mxGeometry x="36.10619469026548" y="33.519379844961236" width="99.11504424778761" height="39.348837209302324" as="geometry" />
        </mxCell>
        <mxCell id="gU23In4gm5cuZfsaVs3h-3" value="AI行为分析" style="whiteSpace=wrap;strokeWidth=2;" vertex="1" parent="gU23In4gm5cuZfsaVs3h-1">
          <mxGeometry x="36.81415929203539" y="127.51937984496124" width="97.69911504424778" height="39.348837209302324" as="geometry" />
        </mxCell>
        <mxCell id="gU23In4gm5cuZfsaVs3h-4" value="企业专家量规" style="whiteSpace=wrap;strokeWidth=2;" vertex="1" parent="gU23In4gm5cuZfsaVs3h-1">
          <mxGeometry x="30.442477876106192" y="221.51937984496124" width="110.44247787610618" height="39.348837209302324" as="geometry" />
        </mxCell>
        <mxCell id="gU23In4gm5cuZfsaVs3h-5" value="终结性评价" style="whiteSpace=wrap;strokeWidth=2;" vertex="1" parent="gU23In4gm5cuZfsaVs3h-1">
          <mxGeometry x="36.10619469026548" y="315.51937984496124" width="99.11504424778761" height="39.348837209302324" as="geometry" />
        </mxCell>
        <mxCell id="gU23In4gm5cuZfsaVs3h-6" value="动态优化建议" style="whiteSpace=wrap;strokeWidth=2;" vertex="1" parent="gU23In4gm5cuZfsaVs3h-1">
          <mxGeometry x="30.442477876106192" y="409.51937984496124" width="110.44247787610618" height="39.348837209302324" as="geometry" />
        </mxCell>
        <mxCell id="gU23In4gm5cuZfsaVs3h-7" value="" style="curved=1;startArrow=none;endArrow=block;exitX=0.5;exitY=0.99;entryX=0.5;entryY=-0.01;rounded=0;" edge="1" parent="gU23In4gm5cuZfsaVs3h-1" source="gU23In4gm5cuZfsaVs3h-2" target="gU23In4gm5cuZfsaVs3h-3">
          <mxGeometry relative="1" as="geometry">
            <Array as="points" />
          </mxGeometry>
        </mxCell>
        <mxCell id="gU23In4gm5cuZfsaVs3h-8" value="" style="curved=1;startArrow=none;endArrow=block;exitX=0.5;exitY=0.99;entryX=0.5;entryY=-0.01;rounded=0;" edge="1" parent="gU23In4gm5cuZfsaVs3h-1" source="gU23In4gm5cuZfsaVs3h-3" target="gU23In4gm5cuZfsaVs3h-4">
          <mxGeometry relative="1" as="geometry">
            <Array as="points" />
          </mxGeometry>
        </mxCell>
        <mxCell id="gU23In4gm5cuZfsaVs3h-9" value="" style="curved=1;startArrow=none;endArrow=block;exitX=0.5;exitY=0.99;entryX=0.5;entryY=-0.01;rounded=0;" edge="1" parent="gU23In4gm5cuZfsaVs3h-1" source="gU23In4gm5cuZfsaVs3h-4" target="gU23In4gm5cuZfsaVs3h-5">
          <mxGeometry relative="1" as="geometry">
            <Array as="points" />
          </mxGeometry>
        </mxCell>
        <mxCell id="gU23In4gm5cuZfsaVs3h-10" value="" style="curved=1;startArrow=none;endArrow=block;exitX=0.5;exitY=0.99;entryX=0.5;entryY=-0.01;rounded=0;" edge="1" parent="gU23In4gm5cuZfsaVs3h-1" source="gU23In4gm5cuZfsaVs3h-5" target="gU23In4gm5cuZfsaVs3h-6">
          <mxGeometry relative="1" as="geometry">
            <Array as="points" />
          </mxGeometry>
        </mxCell>
        <mxCell id="gU23In4gm5cuZfsaVs3h-11" value="教学过程设计" style="whiteSpace=wrap;strokeWidth=2;verticalAlign=top;" vertex="1" parent="1">
          <mxGeometry x="296" y="20" width="154" height="470" as="geometry" />
        </mxCell>
        <mxCell id="gU23In4gm5cuZfsaVs3h-12" value="案例导入" style="whiteSpace=wrap;strokeWidth=2;" vertex="1" parent="gU23In4gm5cuZfsaVs3h-11">
          <mxGeometry x="40.203539823008846" y="33.519379844961236" width="84.49557522123894" height="39.348837209302324" as="geometry" />
        </mxCell>
        <mxCell id="gU23In4gm5cuZfsaVs3h-13" value="驱动任务分层" style="whiteSpace=wrap;strokeWidth=2;" vertex="1" parent="gU23In4gm5cuZfsaVs3h-11">
          <mxGeometry x="29.300884955752213" y="127.51937984496124" width="106.30088495575222" height="39.348837209302324" as="geometry" />
        </mxCell>
        <mxCell id="gU23In4gm5cuZfsaVs3h-14" value="资源整合" style="whiteSpace=wrap;strokeWidth=2;" vertex="1" parent="gU23In4gm5cuZfsaVs3h-11">
          <mxGeometry x="40.203539823008846" y="221.51937984496124" width="84.49557522123894" height="39.348837209302324" as="geometry" />
        </mxCell>
        <mxCell id="gU23In4gm5cuZfsaVs3h-15" value="协作探究" style="whiteSpace=wrap;strokeWidth=2;" vertex="1" parent="gU23In4gm5cuZfsaVs3h-11">
          <mxGeometry x="40.203539823008846" y="315.51937984496124" width="84.49557522123894" height="39.348837209302324" as="geometry" />
        </mxCell>
        <mxCell id="gU23In4gm5cuZfsaVs3h-16" value="成果展示" style="whiteSpace=wrap;strokeWidth=2;" vertex="1" parent="gU23In4gm5cuZfsaVs3h-11">
          <mxGeometry x="40.203539823008846" y="409.51937984496124" width="84.49557522123894" height="39.348837209302324" as="geometry" />
        </mxCell>
        <mxCell id="gU23In4gm5cuZfsaVs3h-17" value="" style="curved=1;startArrow=none;endArrow=block;exitX=0.5;exitY=0.99;entryX=0.5;entryY=-0.01;rounded=0;" edge="1" parent="gU23In4gm5cuZfsaVs3h-11" source="gU23In4gm5cuZfsaVs3h-12" target="gU23In4gm5cuZfsaVs3h-13">
          <mxGeometry relative="1" as="geometry">
            <Array as="points" />
          </mxGeometry>
        </mxCell>
        <mxCell id="gU23In4gm5cuZfsaVs3h-18" value="" style="curved=1;startArrow=none;endArrow=block;exitX=0.5;exitY=0.99;entryX=0.5;entryY=-0.01;rounded=0;" edge="1" parent="gU23In4gm5cuZfsaVs3h-11" source="gU23In4gm5cuZfsaVs3h-13" target="gU23In4gm5cuZfsaVs3h-14">
          <mxGeometry relative="1" as="geometry">
            <Array as="points" />
          </mxGeometry>
        </mxCell>
        <mxCell id="gU23In4gm5cuZfsaVs3h-19" value="" style="curved=1;startArrow=none;endArrow=block;exitX=0.5;exitY=0.99;entryX=0.5;entryY=-0.01;rounded=0;" edge="1" parent="gU23In4gm5cuZfsaVs3h-11" source="gU23In4gm5cuZfsaVs3h-14" target="gU23In4gm5cuZfsaVs3h-15">
          <mxGeometry relative="1" as="geometry">
            <Array as="points" />
          </mxGeometry>
        </mxCell>
        <mxCell id="gU23In4gm5cuZfsaVs3h-20" value="" style="curved=1;startArrow=none;endArrow=block;exitX=0.5;exitY=0.99;entryX=0.5;entryY=-0.01;rounded=0;" edge="1" parent="gU23In4gm5cuZfsaVs3h-11" source="gU23In4gm5cuZfsaVs3h-15" target="gU23In4gm5cuZfsaVs3h-16">
          <mxGeometry relative="1" as="geometry">
            <Array as="points" />
          </mxGeometry>
        </mxCell>
        <mxCell id="gU23In4gm5cuZfsaVs3h-21" value="教学前端分析" style="whiteSpace=wrap;strokeWidth=2;verticalAlign=top;" vertex="1" parent="1">
          <mxGeometry x="100" y="20" width="158" height="470" as="geometry" />
        </mxCell>
        <mxCell id="gU23In4gm5cuZfsaVs3h-22" value="教学目标" style="whiteSpace=wrap;strokeWidth=2;" vertex="1" parent="gU23In4gm5cuZfsaVs3h-21">
          <mxGeometry x="41.24778761061946" y="33.519379844961236" width="86.69026548672566" height="39.348837209302324" as="geometry" />
        </mxCell>
        <mxCell id="gU23In4gm5cuZfsaVs3h-23" value="岗位能力需求" style="whiteSpace=wrap;strokeWidth=2;" vertex="1" parent="gU23In4gm5cuZfsaVs3h-21">
          <mxGeometry x="30.06194690265487" y="127.51937984496124" width="109.06194690265484" height="39.348837209302324" as="geometry" />
        </mxCell>
        <mxCell id="gU23In4gm5cuZfsaVs3h-24" value="课程知识图谱" style="whiteSpace=wrap;strokeWidth=2;" vertex="1" parent="gU23In4gm5cuZfsaVs3h-21">
          <mxGeometry x="30.06194690265487" y="221.51937984496124" width="109.06194690265484" height="39.348837209302324" as="geometry" />
        </mxCell>
        <mxCell id="gU23In4gm5cuZfsaVs3h-25" value="学情诊断" style="whiteSpace=wrap;strokeWidth=2;" vertex="1" parent="gU23In4gm5cuZfsaVs3h-21">
          <mxGeometry x="41.24778761061946" y="315.51937984496124" width="86.69026548672566" height="39.348837209302324" as="geometry" />
        </mxCell>
        <mxCell id="gU23In4gm5cuZfsaVs3h-26" value="教学环境适配" style="whiteSpace=wrap;strokeWidth=2;" vertex="1" parent="gU23In4gm5cuZfsaVs3h-21">
          <mxGeometry x="30.06194690265487" y="409.51937984496124" width="109.06194690265484" height="39.348837209302324" as="geometry" />
        </mxCell>
        <mxCell id="gU23In4gm5cuZfsaVs3h-27" value="" style="curved=1;startArrow=none;endArrow=block;exitX=0.5;exitY=0.99;entryX=0.5;entryY=-0.01;rounded=0;" edge="1" parent="gU23In4gm5cuZfsaVs3h-21" source="gU23In4gm5cuZfsaVs3h-22" target="gU23In4gm5cuZfsaVs3h-23">
          <mxGeometry relative="1" as="geometry">
            <Array as="points" />
          </mxGeometry>
        </mxCell>
        <mxCell id="gU23In4gm5cuZfsaVs3h-28" value="" style="curved=1;startArrow=none;endArrow=block;exitX=0.5;exitY=0.99;entryX=0.5;entryY=-0.01;rounded=0;" edge="1" parent="gU23In4gm5cuZfsaVs3h-21" source="gU23In4gm5cuZfsaVs3h-23" target="gU23In4gm5cuZfsaVs3h-24">
          <mxGeometry relative="1" as="geometry">
            <Array as="points" />
          </mxGeometry>
        </mxCell>
        <mxCell id="gU23In4gm5cuZfsaVs3h-29" value="" style="curved=1;startArrow=none;endArrow=block;exitX=0.5;exitY=0.99;entryX=0.5;entryY=-0.01;rounded=0;" edge="1" parent="gU23In4gm5cuZfsaVs3h-21" source="gU23In4gm5cuZfsaVs3h-24" target="gU23In4gm5cuZfsaVs3h-25">
          <mxGeometry relative="1" as="geometry">
            <Array as="points" />
          </mxGeometry>
        </mxCell>
        <mxCell id="gU23In4gm5cuZfsaVs3h-30" value="" style="curved=1;startArrow=none;endArrow=block;exitX=0.5;exitY=0.99;entryX=0.5;entryY=-0.01;rounded=0;" edge="1" parent="gU23In4gm5cuZfsaVs3h-21" source="gU23In4gm5cuZfsaVs3h-25" target="gU23In4gm5cuZfsaVs3h-26">
          <mxGeometry relative="1" as="geometry">
            <Array as="points" />
          </mxGeometry>
        </mxCell>
        <mxCell id="gU23In4gm5cuZfsaVs3h-31" value="教学前端分析" style="whiteSpace=wrap;strokeWidth=2;" vertex="1" parent="1">
          <mxGeometry x="760" y="140" width="156" height="54" as="geometry" />
        </mxCell>
        <mxCell id="gU23In4gm5cuZfsaVs3h-32" value="教学过程设计" style="whiteSpace=wrap;strokeWidth=2;" vertex="1" parent="1">
          <mxGeometry x="740" y="320" width="156" height="54" as="geometry" />
        </mxCell>
        <mxCell id="gU23In4gm5cuZfsaVs3h-33" value="教学评价设计" style="whiteSpace=wrap;strokeWidth=2;" vertex="1" parent="1">
          <mxGeometry x="863" y="240" width="156" height="54" as="geometry" />
        </mxCell>
        <mxCell id="gU23In4gm5cuZfsaVs3h-34" value="" style="curved=1;startArrow=none;endArrow=block;exitX=0.46;exitY=0.99;entryX=0.5;entryY=0;rounded=0;" edge="1" parent="1" source="gU23In4gm5cuZfsaVs3h-31" target="gU23In4gm5cuZfsaVs3h-32">
          <mxGeometry relative="1" as="geometry">
            <Array as="points">
              <mxPoint x="758" y="124" />
            </Array>
          </mxGeometry>
        </mxCell>
        <mxCell id="gU23In4gm5cuZfsaVs3h-35" value="" style="curved=1;startArrow=none;endArrow=block;exitX=0.5;exitY=1;entryX=0.75;entryY=1;rounded=0;entryDx=0;entryDy=0;" edge="1" parent="1" source="gU23In4gm5cuZfsaVs3h-32" target="gU23In4gm5cuZfsaVs3h-33">
          <mxGeometry relative="1" as="geometry">
            <Array as="points">
              <mxPoint x="1010" y="440" />
            </Array>
          </mxGeometry>
        </mxCell>
        <mxCell id="gU23In4gm5cuZfsaVs3h-36" value="反馈优化" style="curved=1;startArrow=none;endArrow=block;exitX=0.75;exitY=0;entryX=0.54;entryY=0.99;rounded=0;" edge="1" parent="1" source="gU23In4gm5cuZfsaVs3h-33" target="gU23In4gm5cuZfsaVs3h-31">
          <mxGeometry relative="1" as="geometry">
            <Array as="points">
              <mxPoint x="906" y="228" />
              <mxPoint x="906" y="124" />
            </Array>
          </mxGeometry>
        </mxCell>
        <mxCell id="gU23In4gm5cuZfsaVs3h-67" value="" style="curved=1;startArrow=none;endArrow=block;exitX=0.5;exitY=1;entryX=0.2;entryY=0;rounded=0;" edge="1" parent="1" source="gU23In4gm5cuZfsaVs3h-57">
          <mxGeometry relative="1" as="geometry">
            <Array as="points">
              <mxPoint x="213" y="1898" />
            </Array>
            <mxPoint x="467.2000000000003" y="1260" as="targetPoint" />
          </mxGeometry>
        </mxCell>
      </root>
    </mxGraphModel>
  </diagram>
</mxfile>
